<svg width="157" height="52" viewBox="0 0 191 69" fill="none" xmlns="http://www.w3.org/2000/svg">
    <rect x="8.58251" y="23.2719" width="178" height="44" rx="11" transform="rotate(-5.02784 8.58251 23.2719)"
        fill="#00FFAE" stroke="black" stroke-width="2" />
    <rect x="1.08361" y="17.9085" width="178" height="44" rx="11" transform="rotate(-5.02784 1.08361 17.9085)"
        fill="url(#paint0_linear_4_7)" stroke="black" stroke-width="2" />
    <path
        d="M39.5856 34.2925C39.8855 34.3577 40.1628 34.464 40.4176 34.6115C40.6724 34.759 40.8958 34.9583 41.0878 35.2093C41.2792 35.4539 41.436 35.7506 41.5582 36.0993C41.6804 36.448 41.7617 36.8526 41.8022 37.313L41.8638 38.0134C42.0624 40.2703 41.0332 41.4981 38.7763 41.6966L31.1398 42.3685L29.9125 28.4185L37.1502 27.7817C39.4071 27.5831 40.6351 28.6156 40.8342 30.879L40.8565 31.1319C40.9255 31.9166 40.8555 32.5698 40.6465 33.0914C40.4435 33.606 40.0898 34.0064 39.5856 34.2925ZM32.5602 36.1164L32.9231 40.2411L38.5459 39.7464C39.0712 39.7002 39.4398 39.5436 39.6516 39.2766C39.8634 39.0096 39.9462 38.6135 39.9 38.0882L39.805 37.0084C39.7582 36.4766 39.6075 36.101 39.3529 35.8815C39.0983 35.6621 38.7084 35.5755 38.183 35.6217L32.5602 36.1164ZM32.0399 30.2018L32.3891 34.1708L37.7492 33.6992C38.2274 33.6376 38.5597 33.4776 38.7462 33.2194C38.9385 32.9541 39.0124 32.5686 38.9679 32.0627L38.8875 31.1483C38.8407 30.6165 38.6897 30.2376 38.4345 30.0117C38.1794 29.7858 37.7891 29.696 37.2638 29.7422L32.0399 30.2018ZM44.0421 30.7928L45.9488 30.625L46.6917 39.069L52.0324 38.5991L51.2895 30.1552L53.206 29.9866L54.1175 40.347L52.201 40.5156L52.047 38.7645C52.0486 39.0062 52.0038 39.2389 51.9123 39.4626C51.8209 39.6863 51.6948 39.8869 51.5339 40.0645C51.379 40.235 51.1953 40.3753 50.9828 40.4855C50.7703 40.5957 50.5408 40.6616 50.2943 40.6833L46.8603 40.9854C46.6009 41.0082 46.3502 40.9813 46.1082 40.9045C45.8656 40.8213 45.6493 40.7031 45.4594 40.5499C45.2753 40.3896 45.1212 40.1973 44.9969 39.973C44.879 39.7481 44.8084 39.5026 44.785 39.2367L44.0421 30.7928ZM58.3767 44.1877L60.0959 38.8799L55.2002 29.8111L57.2139 29.634L60.8667 36.4985L63.2648 29.1016L65.2785 28.9245L60.2834 44.0199L58.3767 44.1877ZM76.3461 38.3913L74.3518 38.5668L73.1245 24.6167L75.1188 24.4413L84.456 34.5211L83.5043 23.7035L85.4986 23.5281L86.7259 37.4781L84.7316 37.6536L75.3943 27.5737L76.3461 38.3913ZM98.9022 34.4756C98.9256 34.7415 98.8956 34.9958 98.8124 35.2384C98.7357 35.4804 98.6175 35.6967 98.4578 35.8872C98.304 36.0706 98.1149 36.2245 97.8906 36.3488C97.6721 36.4661 97.43 36.5364 97.1641 36.5598L92.0179 37.0125C91.7585 37.0354 91.5078 37.0084 91.2658 36.9317C91.0232 36.8484 90.8069 36.7302 90.617 36.577C90.4329 36.4167 90.2788 36.2244 90.1545 36.0001C90.0366 35.7752 89.966 35.5298 89.9426 35.2639L89.3684 28.7363C89.345 28.4704 89.3716 28.2165 89.4484 27.9744C89.5316 27.7318 89.6501 27.5188 89.8039 27.3353C89.9636 27.1448 90.1559 26.9907 90.3808 26.8729C90.6052 26.7485 90.847 26.675 91.1065 26.6522L96.2526 26.1994C96.5185 26.176 96.7695 26.2062 97.0056 26.29C97.2476 26.3668 97.4607 26.4853 97.6447 26.6455C97.8346 26.7987 97.9885 26.9878 98.1063 27.2127C98.2306 27.4371 98.3045 27.6822 98.3279 27.9481L98.9022 34.4756ZM91.2751 28.5686L91.8493 35.0961L96.9955 34.6434L96.4212 28.1158L91.2751 28.5686ZM104.421 35.9213L100.163 25.8554L102.099 25.685L105.238 33.281L106.837 25.2682L108.792 25.0962L111.765 32.7067L113.53 24.6794L115.465 24.5091L113.031 35.1639L111.036 35.3393L108.052 27.9357L106.415 35.7459L104.421 35.9213ZM118.626 29.4562L117.056 20.7517L119.761 20.5138L119.735 29.3586L118.626 29.4562ZM117.921 31.8024L120.829 31.5465L121.085 34.4552L118.177 34.7111L117.921 31.8024ZM124.327 28.9547L122.757 20.2502L125.461 20.0122L125.436 28.8571L124.327 28.9547ZM123.621 31.3009L126.53 31.045L126.786 33.9537L123.877 34.2096L123.621 31.3009ZM134.283 34.6996L154.206 32.9468L152.453 13.0237L132.53 14.7765L134.283 34.6996Z"
        fill="black" />
    <defs>
        <linearGradient id="paint0_linear_4_7" x1="-22.8056" y1="13.5672" x2="168.744" y2="76.4797"
            gradientUnits="userSpaceOnUse">
            <stop stop-color="#6375FE" />
            <stop offset="0.458115" stop-color="#58FEE5" />
            <stop offset="1" stop-color="#00FFAE" />
        </linearGradient>
    </defs>
</svg>