<svg width="127" height="27" viewBox="0 0 127 27" fill="none" xmlns="http://www.w3.org/2000/svg">
    <path d="M107.794 1.79784C104.821 3.23614 104.469 3.62254 95.9498 15.5672C94.3335 17.9138 92.6156 19.716 92.1615 19.558C91.7074 19.4001 89.6965 17.0278 87.6687 14.286C80.1948 4.41347 76.9908 1.91703 74.2264 4.00972C73.4141 4.6725 70.675 8.15575 68.1504 11.859C63.8316 18.2107 61.8232 20.6391 61.1744 20.4134C60.9798 20.3457 57.8661 17.5898 54.2588 14.3712C50.674 11.0878 46.8241 8.14849 45.7862 7.78738C43.2562 6.90719 41.2422 8.09734 35.2142 13.9271C32.4865 16.5416 29.519 19.2181 28.5769 19.8358L26.8253 20.899L20.8573 15.4774C17.5517 12.4366 14.39 10.0276 13.6736 9.99654C11.9361 9.97386 9.8036 11.9227 4.96587 18.0939C0.768468 23.4696 -0.500961 25.8642 0.601864 26.2479C1.38033 26.5187 3.33795 24.6545 8.17001 18.9177C10.3307 16.4696 12.5112 14.1738 13.0782 14.0074C13.7551 13.7338 15.6053 15.1048 19.018 18.2556C21.7003 20.7887 24.7322 23.1525 25.7702 23.5136C28.2776 24.4587 30.7937 23.0796 36.7117 17.357C43.8849 10.3258 43.8623 10.3907 46.5728 12.4245C47.7771 13.3525 50.9557 16.131 53.6379 18.6641C59.7103 24.4129 61.8088 25.0702 64.9737 22.2442C66.2486 21.0879 68.5025 18.1631 70.0991 15.6641C73.6929 9.93293 75.8988 7.35506 76.9368 7.71616C77.3909 7.87415 80.0448 10.9065 82.8229 14.4183C89.1489 22.3643 90.3927 23.597 92.5843 23.7777C94.6885 24.0006 97.5741 20.932 102.497 13.2632C106.553 7.03841 109.346 4.44648 111.227 5.10098C111.94 5.34924 114.823 7.51565 117.638 9.87668C124.254 15.524 126.108 16.6777 126.604 15.2505C127.304 13.2395 118.668 4.1989 113.811 1.85466C110.939 0.492116 110.593 0.444144 107.794 1.79784Z" fill="white"/>
    </svg>
    